<svg xmlns="http://www.w3.org/2000/svg" x="0px" y="0px" viewBox="0 0 155 32" style="enable-background:new 0 0 155 32;" xml:space="preserve"> <style type="text/css"> .wdt-main-logo-color-1{fill:#CAE28E;} .wdt-main-logo-color-white{fill:#FFFFFF;} </style> <g> <path class="wdt-main-logo-color-1" d="M0.4,15.8l7.8-0.6c-0.1,0.1-0.3,0.2-0.4,0.2c-2.2,1.3-4.7,2.8-7.4,4.4V16C0.4,15.9,0.4,15.9,0.4,15.8z M2.1,8.8l7.4,4l-7.1-0.5L9,13.7l-8.6,1.8C0.5,13.1,1.1,10.8,2.1,8.8z M6.6,3.4l4.1,7.4L5,6.6l4.6,4.6L2.4,8.4 C3.4,6.5,4.9,4.8,6.6,3.4L6.6,3.4z M13.4,0.4l-0.6,9.3l-2.4-6.6l1.4,6.4L7,3.1C8.9,1.8,11,0.9,13.4,0.4z M32,9.6 c-3-0.2-6.1-0.1-9.2,0.3l5.4-2.9l-11.1,4.2l4.7-4.7l-5.4,4.1l5.8-10.4l-7.2,9.6l1.5-6.7l-2.3,6.2l-0.6-8.9c0.8-0.1,1.6-0.2,2.5-0.2 H32L32,9.6L32,9.6z"/> <path class="wdt-main-logo-color-white" d="M26.3,17.2h-4.7v4.7h4.7V17.2z M20.7,22.8h-4.7v4.7h4.7V22.8z M21.6,22.8v4.7h4.7v-4.7H21.6z M27.2,14.1 c1.5-0.5,3.1-1,4.7-1.3v3.5h-4.7V14.1z M22.1,16.3c1.3-0.7,2.7-1.3,4.1-1.8v1.8H22.1z M16.1,20.1c1.4-1.1,2.9-2,4.4-2.9h0.3v4.7 h-4.7V20.1z M13.9,21.9c0.4-0.4,0.8-0.7,1.2-1v1H13.9z M10.5,25.3c0.8-0.9,1.6-1.7,2.4-2.5h2.2v4.7h-4.7V25.3z M8.7,27.4 C9,27,9.3,26.7,9.6,26.3v1.1H8.7z M23.9,12.6c-2.8,0.8-5.4,2-8,3.4l-1.2-1c2.7-1.3,5.5-2.3,8.4-3.1L23.9,12.6L23.9,12.6z M13.8,17.3c-3,2-5.7,4.4-8.2,7.2l-2.1-1.7c2.7-2.5,5.7-4.7,9-6.6L13.8,17.3z M0.4,31.8V26c0.5-0.5,0.9-1,1.4-1.6l2.3,1.9 C2.8,28,1.5,29.8,0.4,31.8z M15.1,31.8h-4.7v-3.5h4.7V31.8z M20.7,31.1c-1.4,0.4-3,0.7-4.5,0.7h-0.1v-3.5h4.7L20.7,31.1L20.7,31.1z M26,28.3c-1.3,1.1-2.8,1.9-4.4,2.5v-2.5H26z M30.5,22.8c-0.8,1.7-1.9,3.2-3.3,4.6v-4.6H30.5z M31.8,18.1c-0.2,1.3-0.5,2.5-1,3.7 h-3.7v-4.7h4.7L31.8,18.1L31.8,18.1z M32,10.8v0.3c-1.8,0.1-3.5,0.4-5.2,0.7l-0.7-0.6C28,11,30,10.8,32,10.8L32,10.8z M5.8,31.8 c0.7-1.2,1.4-2.4,2.2-3.5h1.6v3.5H5.8z"/> <path class="wdt-main-logo-color-white" d="M42.2,29.3v-6.4L55.4,7.8V7.2H42.6V2.7h18v6.4L47.5,24.2v0.6h13.2v4.5H42.2z"/> <path class="wdt-main-logo-color-white" d="M74.8,29.9c-3.3,0-6-0.9-8-2.7c-2-1.8-3-4.5-3-7.9v-6.4c0-3.4,1-6,3-7.9c2-1.8,4.6-2.8,8-2.8s6,0.9,8,2.8 c2,1.8,3,4.4,3,7.9v6.4c0,3.4-1,6.1-3,7.9C80.8,28.9,78.1,29.9,74.8,29.9z M74.8,25.4c1.9,0,3.3-0.5,4.4-1.6c1-1.1,1.6-2.5,1.6-4.4 v-6.7c0-1.8-0.5-3.3-1.6-4.4c-1-1.1-2.5-1.6-4.4-1.6c-1.8,0-3.3,0.5-4.4,1.6c-1,1.1-1.6,2.5-1.6,4.4v6.7c0,1.8,0.5,3.3,1.6,4.4 C71.5,24.8,72.9,25.4,74.8,25.4z"/> <path class="wdt-main-logo-color-white" d="M90.1,29.3V2.7h5v22h12.2v4.6H90.1z"/> <path class="wdt-main-logo-color-white" d="M108.9,29.3l7-26.6h8.7l7,26.6h-5.2l-1.4-5.9h-9.5l-1.4,5.9H108.9z M116.7,18.8h7.1l-3.2-13h-0.7L116.7,18.8z" /> <path class="wdt-main-logo-color-white" d="M134.8,29.3V2.7h11.6c1.7,0,3.1,0.3,4.4,0.9c1.2,0.6,2.2,1.4,2.9,2.5c0.7,1.1,1,2.3,1,3.8v0.5 c0,1.6-0.4,2.9-1.1,3.9s-1.7,1.7-2.8,2.2V17c1,0.1,1.8,0.4,2.4,1.1c0.6,0.6,0.8,1.5,0.8,2.5v8.7h-5v-8c0-0.6-0.2-1.1-0.5-1.5 c-0.3-0.4-0.8-0.6-1.6-0.6h-7v10H134.8z M139.8,14.7h6c1.2,0,2.1-0.3,2.8-0.9c0.7-0.7,1-1.5,1-2.6v-0.4c0-1.1-0.3-1.9-1-2.5 c-0.7-0.7-1.6-1-2.8-1h-6V14.7z"/> </g> </svg>