<svg xmlns="http://www.w3.org/2000/svg" xmlns:xlink="http://www.w3.org/1999/xlink" x="0px" y="0px" viewBox="0 0 230 100" style="enable-background:new 0 0 230 100;" xml:space="preserve"><style type="text/css">	.st0{fill:none;}</style><g>	<path class="st0" d="M203.9,46.4c-6.8,0.3-9.1,4.3-9,9.8c0.1,5.2,2.9,8.1,8.7,9.1c1.4,0.2,5.2-0.2,5.8-0.3l0-17.5  C208.9,47,205.1,46.3,203.9,46.4z"></path>	<path class="st0" d="M131.5,46.4c-6.8,0.3-9.1,4.3-9,9.8c0.1,5.2,2.9,8.1,8.7,9.1c1.4,0.2,5.2-0.2,5.8-0.3l0-17.5  C136.4,47,132.6,46.3,131.5,46.4z"></path>	<path d="M64.5,45.2L62.4,44c-0.4-0.2-0.8-0.7-0.8-1.3l0-2.5c0-0.4,0.2-0.9,0.6-1.1l25.3-14.7L51.8,5c-0.6-0.3-1.8-0.3-2.4,0  L13.8,24.5l39.5,23c0.4,0.2,0.8,0.6,0.8,1.1l0,33.9c0,0.5-0.4,0.8-0.5,0.8l-2.4,1.3c-0.4,0.2-0.9,0.2-1.4-0.1l-2.1-1.2  c-0.3-0.2-0.6-0.6-0.6-1v-30c0-0.5-0.6-0.8-1-1l-34.3-20v40.1c0,0.9,0.9,1.9,1.6,2.3l35.6,21c1.1,0.7,1.8,0.6,3.4-0.2l35.2-20.8  c0.8-0.5,1.6-1.4,1.6-2.4v-40L65.7,45.1C65.4,45.3,64.8,45.4,64.5,45.2z"></path>	<path d="M136.9,39.6c-0.8-0.5-4.4-1.1-7.3-1c-9.4,0.3-16.4,7.7-16.2,16.8c0.3,11.9,7.3,16.9,18.2,17.6c5.6,0.4,12.4-1.4,14.1-1.6  V24.2h-8.8V39.6z M131.1,65.2c-5.8-0.9-8.6-3.9-8.7-9.1c-0.1-5.5,2.2-9.5,9-9.8c1.2,0,5,0.6,5.4,1.1l0,17.5  C136.4,65.1,132.5,65.5,131.1,65.2z"></path>	<path d="M209.4,24.2v15.5c-0.8-0.5-4.4-1.1-7.3-1c-9.4,0.3-16.4,7.7-16.2,16.8c0.3,11.9,7.3,16.9,18.2,17.6  c5.6,0.4,12.4-1.4,14.1-1.6V24.2H209.4z M203.6,65.2c-5.8-0.9-8.6-3.9-8.7-9.1c-0.1-5.5,2.2-9.5,9-9.8c1.2,0,5,0.6,5.4,1.1l0,17.5  C208.8,65.1,205,65.5,203.6,65.2z"></path>	<path d="M164.8,38.6c-5.6-0.1-12.5,1.9-14.2,2.7v44.3h8.9l0-38.5c0.6-0.1,4.4-0.6,5.8-0.6c5.9,0.3,8.6,3.6,8.7,8.8  c0.1,3.3-1,6-3.2,7.8c-1.6,1.3-3.9,2-6.5,2l0,7.7c4.1,0.1,8.3-0.7,11.6-2.9c4.3-2.8,7.3-8.9,7.1-14.7  C182.8,44.9,176.9,38.9,164.8,38.6z"></path></g></svg>