<svg xmlns="http://www.w3.org/2000/svg" xmlns:xlink="http://www.w3.org/1999/xlink" x="0px" y="0px" viewBox="0 0 230 100" style="enable-background:new 0 0 230 100;" xml:space="preserve"><g>	<path d="M53,68.6c0-2.5,0-4.5,0-6.5c0,0,0-0.1,0-0.1c-0.1-2.5-1.7-4.4-4-4.4c-4.6-0.1-9.1-0.1-13.7,0c-2.9,0.1-4.5,3.2-3,5.6  c0.8,1.2,1.9,1.7,3.3,1.7c2.8,0,5.5,0,8.3,0c0.7,0,0.9,0.2,0.9,0.9c0,2.3-0.1,4.5,0,6.8c0,1-0.3,1.5-1.1,1.9  c-3.7,2.2-7.7,3.1-12,2.7c-5.2-0.5-9.3-2.9-11.9-7.4c-2.2-3.8-2.8-8-2.2-12.3c0.8-5.2,3.4-9.3,8-12c3.8-2.2,7.8-2.3,12-1.4  c2.6,0.6,4.8,1.9,7,3.4c2,1.4,4.4,0.9,5.7-1c1.3-1.8,0.9-4.4-1-5.8c-1.2-0.9-2.5-1.7-3.9-2.3c-5-2.4-10.4-2.9-15.8-2.2  c-6.2,0.8-11.3,3.6-15.3,8.4C8.7,51,7.4,58.6,9.2,66.8c1.6,7.1,5.8,12.4,12.4,15.6c4.3,2.1,8.9,2.7,13.7,2.4  c5.5-0.4,10.5-2.2,15-5.3c1.5-1,2.4-2.4,2.5-4.3C53.1,72.9,52.9,70.5,53,68.6z"></path>	<path d="M94.1,47.5c-0.9,0-1.8,0.1-2.8,0.2c-9.5,1.2-16.4,9-16.5,18.5c0,6.5,2.6,11.6,7.9,15.4c4.3,3,9,3.9,14.1,3.1  c13.1-1.9,19.8-15.6,14.1-27C107.6,50.8,101.6,47.7,94.1,47.5z M100.3,75.7c-5.8,4.1-14.9,1.8-16.8-6.8c-0.9-4-0.2-7.8,2.8-10.9  c4.8-5.1,13.5-4,16.9,2.1c1.1,1.9,1.7,4,1.6,6.3C104.7,70.2,103.5,73.4,100.3,75.7z"></path>	<path d="M173.2,47.5c-10.9-0.2-19.7,8-19.7,18.8c0,10.4,8.2,18.6,18.9,18.7c10.8,0.1,19.3-8.1,19.4-18.5  C191.8,55.9,183.7,47.7,173.2,47.5z M181.1,73.7c-1.9,2.4-4.4,3.7-7.4,3.9c-6.8,0.6-11.3-4.7-11.8-10.1c-0.3-3.8,0.6-7.1,3.3-9.8  c1.9-1.9,4.4-2.9,7.4-2.9c5.7,0,10.5,4.6,10.8,10.3C183.6,68.2,183,71.1,181.1,73.7z"></path>	<path d="M221.5,29.5c-0.8-8.2-7.7-14.4-16-14.4c-5.1,0-9.2,2-12.5,5.9c-2.4,2.9-3.6,6.2-3.7,10c0,3.6,1.1,6.8,3.2,9.8  c2.8,4,5.6,7.9,8.4,11.9c1,1.4,2.2,2.1,3.9,2c0.6,0,1.3,0,1.9,0c1.2,0,2.3-0.5,3-1.5c3.1-4.4,6.2-8.7,9.3-13.1  C221.1,36.8,221.9,33.2,221.5,29.5z M212.2,35.5c-2.1,3.1-4.3,6.1-6.4,9.1c-0.3,0.4-0.5,0.5-0.8,0c-2.1-3-4.3-5.9-6.3-9  c-1.8-2.6-1.9-5.4-0.5-8.2c1.5-2.9,4-4.4,7.4-4.5c3.1,0.2,5.5,1.5,7,4.3C214.1,30.1,214,32.9,212.2,35.5z"></path>	<path d="M145.4,48c-1.5,0.4-2.3,1.6-2.9,3c-2.4,6-4.7,12-7.1,18c-0.7,1.7-1.4,3.5-2.1,5.2c-0.3-0.2-0.3-0.4-0.4-0.6  c-2.5-6.4-5-12.8-7.5-19.2c-0.5-1.4-1-2.8-1.6-4.1c-1.5-3.2-5.3-3.1-7-1c-1.3,1.6-1.1,3.2-0.3,4.9c3.5,7.9,6.9,15.9,10.4,23.8  c0.7,1.6,1.2,3.2,2.2,4.6c2,2.9,6,3,8.1,0.2c0.4-0.5,0.7-1.1,1-1.8c3.2-7.4,6.4-14.7,9.6-22.1c0.8-1.8,1.6-3.6,2.4-5.5  c0.6-1.5,0.5-3-0.7-4.2C148.5,47.9,147,47.6,145.4,48z"></path>	<path d="M63.6,34.3c-1.9,0.3-3.3,2-3.3,4.1c0,13.9,0,27.8,0,41.8c0,2.5,1.7,4.3,4.1,4.3c2.4,0,4.2-1.8,4.2-4.3c0-6.9,0-13.9,0-20.8  c0-6.9,0-13.9,0-20.8c0-0.5,0-1-0.2-1.5C67.7,35,65.7,33.9,63.6,34.3z"></path>	<path d="M205.4,57.4c-2.5,0-4.5,2-4.5,4.5c0,2.4,2,4.4,4.5,4.4c2.5,0,4.6-2,4.5-4.5C209.9,59.4,207.9,57.4,205.4,57.4z"></path></g></svg>