<svg xmlns="http://www.w3.org/2000/svg" xmlns:xlink="http://www.w3.org/1999/xlink" x="0px" y="0px" viewBox="0 0 210 63" style="enable-background:new 0 0 210 63;" xml:space="preserve">	<g>		<path d="M124.5,49.1c0-2.6,2.1-4.7,4.8-4.7h7.4c4.5,0,8.7-2.1,11.6-5.5c2.2-2.7,3.4-6,3.4-9.4c0-2.8-0.8-5.5-2.2-7.8l4.9-4.3  l-3.4-3.8l-4.8,4.3c-2.6-2.1-5.9-3.3-9.4-3.3c-8.3,0-15,6.7-15,15c0,3.4,1.2,6.7,3.4,9.4l0.8,1l-1.1,0.6c-3.2,1.7-5.3,5.1-5.3,8.7  c0,5.9,4.8,10.8,10.7,10.9c3,0.1,6-1.1,8.1-3.3l0.2-0.2c1.3-1.3,3.1-2.1,5-2.1c2.7,0,5.2,1.6,6.4,4l4.5-2.5  c-2.1-4-6.3-6.6-10.9-6.6c-0.3,0-0.6,0-0.9,0c-3.1,0.2-5.8,1.6-8,3.8C130.2,57.4,124.5,54.4,124.5,49.1L124.5,49.1z M146.5,29.4  c0,5.4-4.4,9.8-9.9,9.8c-5.4,0-9.9-4.4-9.9-9.8s4.4-9.8,9.9-9.8C142,19.6,146.5,24,146.5,29.4z"></path>		<path d="M178.6,36c-0.6-1.4-0.9-3-0.9-4.5c0-1.5,0.3-3.1,0.9-4.5c0,0,0-0.1,0-0.1c0.8-1.9,2-3.5,3.6-4.8c2.1-1.7,4.8-2.6,7.5-2.6  s5.4,0.9,7.5,2.6c1.6,1.3,2.8,2.9,3.6,4.8c0,0,0,0.1,0,0.1c0.1,0.2,0.1,0.4,0.2,0.6l0.5,1.4h-18.3c-0.2,0.8-0.3,1.7-0.3,2.6  c0,0.9,0.1,1.7,0.3,2.6h23.5l0.1-0.4c0.1-0.7,0.1-1.4,0.1-2.1c0-0.7,0-1.4-0.1-2.1c-1.1-8.6-8.4-15-17.1-15c-8.7,0-16,6.4-17.1,15  c-0.1,0.7-0.1,1.4-0.1,2.1c0,0.7,0,1.4,0.1,2.1c1.1,8.6,8.4,15,17.1,15c4.6,0,8.9-1.8,12.2-5l0.4-0.4l-3.6-3.6l-0.4,0.4  c-1.3,1.3-2.9,2.3-4.6,2.9c0,0-0.1,0-0.1,0c-1.2,0.4-2.5,0.6-3.8,0.6c-2.7,0-5.4-0.9-7.5-2.6C180.6,39.6,179.4,37.9,178.6,36  C178.6,36,178.6,36,178.6,36L178.6,36z"></path>		<path d="M14.1,15.6v5.7c1.3-0.8,2.7-1.3,4.2-1.5c0.7-0.1,1.3-0.2,2-0.2c0.7,0,1.3,0.1,2,0.2l0.2,0c5.7,1,9.9,6,9.9,11.8  S28,42.5,22.2,43.4c-0.7,0.1-1.3,0.2-2,0.2c-0.7,0-1.3-0.1-2-0.2l-0.2,0c-5.7-1-9.9-6-9.9-11.8V4.7H3v26.8c0,8.6,6.5,15.9,15.1,17  c0.7,0.1,1.4,0.1,2.1,0.1s1.4,0,2.1-0.1c8.6-1.1,15.1-8.4,15.1-17s-6.5-15.9-15.1-17c-0.7-0.1-1.4-0.1-2.1-0.1s-1.4,0-2.1,0.1  C16.7,14.7,15.4,15.1,14.1,15.6z"></path>		<path d="M159.8,15v33.1h5.2V15H159.8z M162.4,3c-1.8,0-3.3,1.5-3.3,3.3c0,1.8,1.5,3.3,3.3,3.3c1.8,0,3.3-1.5,3.3-3.3  C165.7,4.5,164.2,3,162.4,3z"></path>		<path d="M56.9,14.6c-8.6,1.1-15.1,8.4-15.1,17c0,8.6,6.5,15.9,15.1,17c0.7,0.1,1.4,0.1,2.1,0.1c0.7,0,1.4,0,2.1-0.1  c8.6-1.1,15.1-8.4,15.1-17c0-8.6-6.5-15.9-15.1-17c-0.7-0.1-1.4-0.1-2.1-0.1C58.3,14.4,57.6,14.5,56.9,14.6L56.9,14.6z M61.2,19.8  c5.7,1,9.9,6,9.9,11.8S66.8,42.5,61,43.4c-0.7,0.1-1.3,0.2-2,0.2s-1.3-0.1-2-0.2l-0.2,0c-5.7-1-9.9-6-9.9-11.8s4.3-10.9,10.1-11.8  c0.7-0.1,1.3-0.2,2-0.2c0.7,0,1.3,0.1,2,0.2L61.2,19.8z"></path>		<path d="M96.5,14.6c-8.6,1.1-15.1,8.4-15.1,17c0,8.6,6.5,15.9,15.1,17c0.7,0.1,1.4,0.1,2.1,0.1c0.7,0,1.4,0,2.1-0.1  c8.6-1.1,15.1-8.4,15.1-17c0-8.6-6.5-15.9-15.1-17c-0.7-0.1-1.4-0.1-2.1-0.1C97.9,14.4,97.2,14.5,96.5,14.6L96.5,14.6z M100.7,19.8  c5.7,1,9.9,6,9.9,11.8s-4.3,10.9-10.1,11.8c-0.7,0.1-1.3,0.2-2,0.2c-0.7,0-1.3-0.1-2-0.2l-0.2,0c-5.7-1-9.9-6-9.9-11.8  s4.3-10.9,10.1-11.8c0.7-0.1,1.3-0.2,2-0.2c0.7,0,1.3,0.1,2,0.2L100.7,19.8z"></path>	</g></svg>