<svg xmlns="http://www.w3.org/2000/svg" xmlns:xlink="http://www.w3.org/1999/xlink" x="0px" y="0px" viewBox="0 0 210 63" style="enable-background:new 0 0 210 63;" xml:space="preserve">	<g>		<path d="M186.5,55.1h-6.9V38.8c0-4.8,1.3-8.4,3.8-10.7c2.6-2.3,5.7-3.5,9.2-3.5c3.5,0,6.6,1.2,9.2,3.5c2.6,2.3,3.9,6,3.9,10.7v16.3  h-6.9V38.8c0-5-2.5-7.7-6.2-7.7c-3.8,0-6.1,2.6-6.1,7.7L186.5,55.1L186.5,55.1z"></path>		<path d="M94.5,24.9v6.5H91c-6.9,0-10.8,3.2-10.8,8.6s4,8.6,10.8,8.6h3.5v6.5H91c-5.6,0-10-1.4-13.1-4.3c-3.1-2.9-4.6-6.5-4.6-10.9  s1.5-7.9,4.6-10.8c3.1-2.9,7.5-4.3,13.1-4.3H94.5z"></path>		<path d="M43.1,29.1c3.1-3.1,6.8-4.5,11.2-4.5c4.4,0,8,1.5,11.1,4.5c3.1,3,4.6,6.7,4.6,10.9c0,4.3-1.5,7.9-4.6,11  c-3.1,3-6.8,4.5-11.1,4.5S46.2,54,43.1,51c-3.1-3-4.6-6.7-4.6-11C38.5,35.7,40,32.2,43.1,29.1z M45.4,40c0,2.6,0.9,4.8,2.5,6.5  c1.7,1.6,3.8,2.5,6.4,2.5c2.5,0,4.6-0.9,6.3-2.5c1.7-1.7,2.6-3.8,2.6-6.5c0-2.6-0.9-4.8-2.6-6.4c-1.7-1.7-3.8-2.6-6.3-2.6  c-2.5,0-4.6,0.9-6.4,2.6C46.3,35.3,45.4,37.4,45.4,40z"></path>		<path d="M131.6,29.1c3.1-3.1,6.8-4.5,11.2-4.5c4.4,0,8,1.5,11.1,4.5c3.1,3,4.6,6.7,4.6,10.9c0,4.3-1.5,7.9-4.6,11  c-3.1,3-6.8,4.5-11.1,4.5c-4.3,0-8.1-1.5-11.2-4.5c-3.1-3-4.6-6.7-4.6-11C127,35.7,128.5,32.2,131.6,29.1z M133.9,40  c0,2.6,0.9,4.8,2.5,6.5c1.7,1.6,3.8,2.5,6.4,2.5c2.5,0,4.6-0.9,6.3-2.5c1.7-1.7,2.6-3.8,2.6-6.5c0-2.6-0.9-4.8-2.6-6.4  c-1.7-1.7-3.8-2.6-6.3-2.6c-2.5,0-4.6,0.9-6.4,2.6C134.8,35.3,133.9,37.4,133.9,40z"></path>		<path d="M169,55.1h-6.9v-18c0-8.7,5-12.2,11.7-12.2h1.7v6.5h-1.3c-3.5,0-5.2,1.9-5.2,5.7L169,55.1L169,55.1z"></path>		<path d="M114,39.3L126,24.9h-8.2l-11.1,13V19.7c0-3.1,1.4-5.6,4.8-5.6h1.6V7.6h-1.6c-6.9,0-11.8,3.4-11.8,12.1v35.4h6.9V40.5  l12.1,14.7h8.2L114,39.3L114,39.3z"></path>		<path d="M38.2,55.1L28,37.9c1.5-0.8,2.9-1.8,4.2-3.1C35.4,31.7,37,28,37,23.5s-1.6-8.1-4.8-11.3C29,9,25.2,7.5,20.6,7.5  S12.3,9,9.1,11.8c-3.2,2.9-4.9,6.8-4.9,11.9v31.4h7.2V36.6c0.2,0.2,0.6,0.4,1,0.7c0.5,0.4,1.6,0.8,3.1,1.3c1.6,0.5,3.3,0.8,5,0.8  c0,0,0.1,0,0.1,0l9.3,15.6L38.2,55.1L38.2,55.1z M11.4,23.5c0-5.3,3.9-9.2,9.2-9.2c5.3,0,9.2,4,9.2,9.2s-4,9.2-9.2,9.2  C15.4,32.8,11.4,28.9,11.4,23.5z"></path>	</g></svg>