<svg xmlns="http://www.w3.org/2000/svg" xmlns:xlink="http://www.w3.org/1999/xlink" x="0px" y="0px" viewBox="0 0 230 100" style="enable-background:new 0 0 230 100;" xml:space="preserve"><style type="text/css">	.st0{fill:none;}	.st1{opacity:0;}</style><g>	<path class="st0" d="M198.2,38.2c-2.9,0-5.4,3.5-6.9,6.6c-1.7,3.7-1.9,6.6,0.7,6.6h0c2.4,0,5-3.1,6.7-6.6  C200.2,41.7,200.9,38.2,198.2,38.2z"></path>	<path class="st0" d="M69.3,30.8c-1,0-1.8-0.1-2.4,0.1l-4.2,8.9c0.4,0.1,1,0.1,1.7,0.1c3.4,0,6.3-1.7,7.6-4.6  C73.4,32.4,72.6,30.8,69.3,30.8z"></path>	<path class="st0" d="M152.7,48.8c-0.9,1.9-0.1,2.7,1.3,2.7c1.4,0,3.1-0.9,4.2-2.2c0.2-0.3,0.5-0.7,0.6-1.1l1.4-3  C157.2,45.3,154,46,152.7,48.8z"></path>	<path class="st0" d="M127.9,38.2c-2.9,0-5.4,3.5-6.9,6.6c-1.7,3.7-1.9,6.6,0.7,6.6h0c2.4,0,5-3.1,6.7-6.6  C130,41.7,130.6,38.2,127.9,38.2z"></path>	<path d="M163,33.5c-3.7,0-7.1,1-8.9,1.8l-2.1,4.5c2-0.9,4.8-1.9,7.6-1.9c2.9,0,3.1,1.5,2.4,2.9l-0.2,0.4c-6.8,0-13.2,2.5-15.8,8.2  c-1.7,3.6-0.4,6.6,3.7,6.6c2.4,0,4.9-0.9,7-2.6h0.1l-0.6,2.1h5.9c0.4-1.3,1.1-3.2,2-5.1l3.6-7.8C170,38,170.2,33.5,163,33.5z   M158.8,48.2c-0.2,0.4-0.4,0.8-0.6,1.1c-1.1,1.4-2.8,2.2-4.2,2.2c-1.3,0-2.1-0.8-1.3-2.7c1.3-2.8,4.5-3.5,7.5-3.5L158.8,48.2z"></path>	<path d="M94.6,34l-6.2,13.3c-0.3,0.6-0.7,1.2-1.1,1.6c-0.8,0.9-2.2,2-3.8,2c-2.1,0-2.1-1.9-0.7-4.9l5.6-12h-6.6l-6,12.9  c-2.9,6.3-1.6,9.2,2.9,9.2c3.3,0,6.1-1.8,7.7-3.1h0.1l-0.9,2.7h5.9c0.4-1.3,1.1-3.2,2-5.1c0.9-1.9,7.7-16.5,7.7-16.5H94.6z"></path>	<path d="M130.3,33.5c-6.1,0-12.5,4.1-16,11.4c-3.3,7-0.9,11.1,5.2,11.1h0c4.9,0,11.9-3,15.8-11.4C138.5,38,136.5,33.5,130.3,33.5z   M128.5,44.8c-1.7,3.6-4.3,6.6-6.7,6.6h0c-2.6,0-2.4-2.9-0.7-6.6c1.5-3.1,4-6.6,6.9-6.6C130.6,38.2,130,41.7,128.5,44.8z"></path>	<path d="M200.5,33.5c-6.1,0-12.6,4.1-16,11.4c-3.3,7-0.9,11.1,5.2,11.1h0c4.9,0,11.9-3,15.8-11.4C208.7,38,206.8,33.5,200.5,33.5z   M198.8,44.8c-1.7,3.6-4.3,6.6-6.7,6.6h0c-2.6,0-2.4-2.9-0.7-6.6c1.5-3.1,4-6.6,6.9-6.6C200.9,38.2,200.2,41.7,198.8,44.8z"></path>	<path d="M225.4,33.5c-2,0-4.9,1.3-7.3,4.1h-0.2l1.4-3.6h-5.7c-0.8,1.9-1.7,4.1-3,6.9l-6.9,14.8h3.5c2,0,3.6-1.1,4.5-3l3.7-7.9  c0.3-0.7,0.7-1.3,1-1.8c1.6-2.2,3.8-3.3,5.9-3.3c0.7,0,1.2,0,1.6,0.1l2.8-6.1C226.4,33.6,226,33.5,225.4,33.5z"></path>	<path d="M181.2,38.6h4l2.1-4.6h-4l2.7-5.8h-3.4c-2,0-3.6,1.1-4.5,3l-1.3,2.7H174l-2.1,4.6h2.9l-4.4,9.4c-1.5,3.2-1.7,5.1-1,6.3  c0.6,1.1,2.1,1.7,4.1,1.7c1.8,0,3.4-0.2,4.4-0.5l2.3-4.9c-0.6,0.1-1.1,0.2-2,0.2c-1.7,0-2.1-1-0.9-3.5L181.2,38.6z"></path>	<path d="M149.4,28.2c-2,0-3.6,1.1-4.5,3l-11.4,24.4h3.5c2,0,3.6-1.1,4.5-3l11.4-24.4H149.4z"></path>	<path d="M115.7,39.7l2.8-6.1c-0.4-0.1-0.7-0.1-1.4-0.1c-2,0-4.9,1.3-7.3,4.1h-0.2l1.4-3.6h-5.7c-0.8,1.9-1.7,4.1-3,6.9l-6.9,14.8  H99c2,0,3.6-1.1,4.5-3l3.7-7.9c0.3-0.7,0.7-1.3,1-1.8c1.6-2.2,3.8-3.3,5.8-3.3C114.8,39.6,115.3,39.6,115.7,39.7z"></path>	<path d="M78.6,35.3c1.8-4.3,1.8-9.1-7.7-9.1h-8.4L48.8,55.6h3.5c2,0,3.6-1.1,4.5-3l3.7-7.8c0.5,0.1,1.1,0.1,1.8,0.1  c3.4,0,7.3-0.3,10.4-2.4C75.3,40.8,77.3,38.4,78.6,35.3z M72.1,35.3c-1.3,2.9-4.2,4.6-7.6,4.6c-0.8,0-1.3,0-1.7-0.1l4.2-8.9  c0.6-0.1,1.4-0.1,2.4-0.1C72.6,30.8,73.4,32.4,72.1,35.3z"></path>	<path d="M39.5,26.2c-2,0-3.6,1.1-4.5,3L22.7,55.6h5.2l13.7-29.4H39.5z"></path>	<path d="M45.1,26.2L31.4,55.6h8.1c2,0,3.6-1.1,4.5-3c0.9-1.9,12.3-26.4,12.3-26.4H45.1z"></path>	<path d="M12.5,42.3c-0.7,0-1.3,0.6-1.3,1.3c0,0.4,0.1,0.7,0.4,0.9l8.6,8.6l5.1-10.9H12.5z"></path>	<rect x="3.2" y="73.4" class="st1" width="0.4" height="0.4"></rect></g></svg>