<svg xmlns="http://www.w3.org/2000/svg" xmlns:xlink="http://www.w3.org/1999/xlink" x="0px" y="0px" viewBox="0 0 230 100" style="enable-background:new 0 0 230 100;" xml:space="preserve"><g>	<path d="M88.6,24.3c-1.5-1.5-3.1-2.7-4.9-3.4c-1.8-0.8-3.6-1.1-5.6-1.1c-4.3,0-8,1.7-11.1,5c-3,3.3-4.6,7.6-4.6,12.8  c0,5,1.6,9.2,4.7,12.6c3.1,3.4,6.9,5.1,11.2,5.1c1.9,0,3.7-0.3,5.3-1c1.6-0.7,3.3-1.8,4.9-3.4l0,3.6l8.4,0V20.6h-8.4L88.6,24.3z   M86.4,44.7c-1.7,1.9-3.9,2.8-6.5,2.8c-2.5,0-4.7-0.9-6.4-2.8c-1.7-1.9-2.6-4.3-2.6-7.2c0-2.9,0.9-5.3,2.6-7.1  c1.7-1.9,3.9-2.8,6.4-2.8c2.6,0,4.8,0.9,6.6,2.7c1.7,1.8,2.3,3.9,2.3,6.8C88.7,40.1,88.1,42.8,86.4,44.7z"></path>	<path d="M21.8,55.2c1.9,0,3.7-0.3,5.3-1c1.6-0.7,3.3-1.8,4.9-3.4l0,3.6l8.4,0V20.6h-8.4l0,3.7c-1.5-1.5-3.1-2.7-4.9-3.4  c-1.8-0.8-3.6-1.1-5.6-1.1c-4.3,0-8,1.7-11.1,5c-3,3.3-4.6,7.6-4.6,12.8c0,5,1.6,9.2,4.7,12.6C13.8,53.5,17.5,55.2,21.8,55.2z   M16.8,30.3c1.7-1.9,3.9-2.8,6.4-2.8c2.6,0,4.8,0.9,6.6,2.7c1.7,1.8,2.3,3.9,2.3,6.8c0,3-0.6,5.7-2.3,7.6c-1.7,1.9-3.9,2.8-6.5,2.8  c-2.5,0-4.7-0.9-6.4-2.8c-1.7-1.9-2.6-4.3-2.6-7.2C14.3,34.5,15.1,32.1,16.8,30.3z"></path>	<polygon points="211.3,36.5 222.6,20.6 213,20.6 206.5,29.8 199.9,20.6 190.1,20.6 201.6,36.6 188.9,54.3 198.5,54.3 206.4,43.3   214.3,54.3 224.1,54.3  "></polygon>	<path d="M182,44.4c-2.2,2.2-4.9,3.4-8.1,3.4c-2.6,0-4.8-0.7-6.5-2.2c-1.7-1.4-2.7-3.4-3.1-5.8l27,0l0-1.6c0-5.6-1.6-10-4.9-13.4  c-3.3-3.4-7.6-5.1-12.8-5.1c-5,0-9.1,1.7-12.4,5.1c-3.3,3.4-4.9,7.7-4.9,12.8c0,5,1.6,9.2,4.9,12.5c3.3,3.3,7.6,5,12.8,5  c3.4,0,6.3-0.6,8.8-1.8c2.5-1.2,4.6-3.1,6.3-5.6L182,44.4z M167.8,28.9c1.8-1.3,3.8-2,6.2-2c2.2,0,4,0.6,5.7,1.7  c1.6,1.2,2.7,2.7,3.3,4.5l-18.2,0C165.7,31.2,166.7,29.7,167.8,28.9z"></path>	<path d="M147.6,21.5c-1.8-1.1-3.9-1.7-6.3-1.7c-2.3,0-4.4,0.5-6.4,1.6c-1.9,1-3.6,2.6-4.9,4.6c-1-2-2.4-3.5-4.1-4.6  c-1.7-1-3.6-1.6-5.7-1.6c-2.1,0-4,0.4-5.7,1.2c-1.8,0.8-3.3,2-4.8,3.6v-3.9h-8.4l0,33.7h8.4l0-15c0-3.2,0.3-5.6,0.9-7.1  c0.6-1.5,1.4-2.7,2.6-3.5c1.1-0.8,2.4-1.3,3.8-1.3c1.3,0,2.3,0.3,3.2,1c0.9,0.7,1.5,1.7,2,3c0.4,1.3,0.7,3.5,0.7,6.5l0,16.3h8.4  l0-15.2c0-3.2,0.3-5.5,0.8-7c0.6-1.5,1.4-2.6,2.5-3.4c1.1-0.8,2.4-1.2,3.9-1.2c1.9,0,3.3,0.7,4.3,2c0.9,1.4,1.4,3.9,1.4,7.7l0,17  h8.4l0-19.7c0-4.1-0.4-7-1.2-8.8C150.7,24,149.4,22.6,147.6,21.5z"></path>	<path d="M53.2,36.8c0-6.4,1.8-9.6,6.1-9.6c0.7,0,1.5,0.2,2.3,0.4c1.4-2.3,3-4.5,4.8-6.5c-1.9-1-3.8-1.5-5.6-1.5  c-1.6,0-2.9,0.3-4.1,0.9c-1.1,0.6-2.4,1.6-3.8,3.1l0-2.9h-8v33.7h8.4L53.2,36.8z"></path>	<path d="M16.6,67c0,0.3,0,0.6,0.1,0.8c-0.9-0.6-1.9-1-2.8-1c-2.7,0-4.1,1.6-4.1,4.9c0,1.7,0.4,3,1.3,3.8c0.7,0.7,1.7,1,2.9,1  c0.9,0,1.7-0.3,2.6-1l0.4,0.8h0.8V62.9h-1.3V67z M16.6,74.4c-1,0.7-1.8,1-2.4,1c-1.9,0-2.9-1.3-2.9-3.8c0-1.3,0.2-2.3,0.6-2.9  c0.4-0.6,1.1-0.9,2.1-0.9c0.4,0,0.9,0.1,1.4,0.3c0.1,0.1,0.6,0.2,1.3,0.6V74.4z"></path>	<path d="M24.2,66.8c-1.6,0-2.7,0.4-3.4,1.3c-0.6,0.8-0.9,2-0.9,3.6c0,1.7,0.3,2.9,1,3.7c0.7,0.8,1.8,1.2,3.3,1.2  c1.9,0,3.1-0.7,3.8-2l-1.2-0.5c-0.4,0.9-1.3,1.3-2.6,1.3c-1,0-1.8-0.3-2.2-0.8c-0.4-0.5-0.6-1.4-0.7-2.5h6.8v-0.4  c0-1.6-0.2-2.7-0.7-3.4C26.9,67.3,25.8,66.8,24.2,66.8z M21.3,70.9c0.1-1.1,0.3-1.9,0.8-2.4c0.4-0.4,1.1-0.7,2.1-0.7  c1,0,1.6,0.3,2,0.8c0.3,0.5,0.5,1.2,0.5,2.2H21.3z"></path>	<path d="M31.9,74.2V62.9h-2.8v1.2h1.4v10.1c0,1.5,0.7,2.2,2.1,2.2h0.7v-1.2h-0.7C32.1,75.2,31.9,74.9,31.9,74.2z"></path>	<path d="M36.8,74.2v-7.1h-2.8v1.2h1.5c-0.1,0.2-0.1,0.4-0.1,0.6v5.4c0,1.5,0.7,2.2,2,2.2h0.7v-1.2h-0.7  C37,75.2,36.8,74.9,36.8,74.2z"></path>	<path d="M35.3,62.9c-0.1,0-0.1,0.1-0.1,0.2v1.3c0,0.1,0,0.1,0.1,0.1h1.4c0.1,0,0.1,0,0.1-0.1v-1.3c0-0.1,0-0.2-0.1-0.2H35.3z"></path>	<path d="M43.3,73.8c-0.2,0.6-0.3,1.1-0.3,1.4c-0.1-0.6-0.2-1.1-0.3-1.4l-2.5-6.8h-1.4l3.5,9.2h1.5l3.5-9.2h-1.4L43.3,73.8z"></path>	<path d="M52.4,66.8c-1.6,0-2.7,0.4-3.4,1.3c-0.6,0.8-0.9,2-0.9,3.6c0,1.7,0.3,2.9,1,3.7c0.7,0.8,1.8,1.2,3.3,1.2  c1.9,0,3.1-0.7,3.8-2l-1.2-0.5c-0.4,0.9-1.3,1.3-2.6,1.3c-1,0-1.8-0.3-2.2-0.8c-0.4-0.5-0.6-1.4-0.7-2.5h6.8v-0.4  c0-1.6-0.2-2.7-0.7-3.4C55,67.3,53.9,66.8,52.4,66.8z M49.5,70.9c0.1-1.1,0.3-1.9,0.8-2.4c0.4-0.4,1.1-0.7,2.1-0.7  c1,0,1.6,0.3,2,0.8c0.3,0.5,0.5,1.2,0.5,2.2H49.5z"></path>	<path d="M60.4,67.4L59.6,68l-0.2-1h-1.1v9.2h1.3v-7l0.5-0.4c0.6-0.5,1.2-0.7,2-0.7c0.3,0,0.6,0,0.8,0.1v-1.3  c-0.3-0.1-0.6-0.1-0.8-0.1C61.4,66.8,60.9,67,60.4,67.4z"></path>	<path d="M68.4,73.8c-0.1,0.2-0.2,0.6-0.3,1.2c-0.2-0.7-0.3-1.1-0.3-1.2l-2.5-6.8h-1.4l3.5,9.4l-0.6,1.6c-0.2,0.4-0.3,0.7-0.5,0.9  c-0.2,0.1-0.6,0.2-1.1,0.2H64v1.2h1.2c0.8,0,1.4-0.1,1.8-0.4c0.4-0.3,0.7-0.7,1-1.3l4.4-11.6h-1.4L68.4,73.8z"></path>	<path d="M84.4,74l-0.9,0.6c-0.8,0.5-1.5,0.8-2.1,0.8c-1.3,0-1.9-0.8-1.9-2.5v-5.9h-1.3v6c0,1.2,0.3,2.1,0.9,2.7  c0.6,0.5,1.3,0.8,2.3,0.8c0.7,0,1.5-0.3,2.4-0.9l0.7-0.5l0.3,1.1h1.1v-9.2h-1.3V74z"></path>	<path d="M92.5,66.8c-0.7,0-1.5,0.3-2.4,0.9l-0.7,0.5l-0.3-1.1h-1.1v9.2h1.3v-7l0.9-0.6c0.8-0.5,1.5-0.8,2.1-0.8  c1.3,0,1.9,0.8,1.9,2.5v5.9h1.3v-6c0-1.2-0.3-2.1-0.9-2.7C94.3,67.1,93.5,66.8,92.5,66.8z"></path>	<path d="M99.8,74.2V62.9h-2.8v1.2h1.4v10.1c0,1.5,0.7,2.2,2.1,2.2h0.7v-1.2h-0.7C100.1,75.2,99.8,74.9,99.8,74.2z"></path>	<path d="M104.7,64.6c0.1,0,0.1,0,0.1-0.1v-1.3c0-0.1,0-0.2-0.1-0.2h-1.4c-0.1,0-0.1,0.1-0.1,0.2v1.3c0,0.1,0,0.1,0.1,0.1H104.7z"></path>	<path d="M104.8,74.2v-7.1H102v1.2h1.5c-0.1,0.2-0.1,0.4-0.1,0.6v5.4c0,1.5,0.7,2.2,2,2.2h0.7v-1.2h-0.7  C105,75.2,104.8,74.9,104.8,74.2z"></path>	<path d="M117.7,66.8c-0.5,0-1,0.1-1.4,0.3c-0.3,0.1-0.7,0.4-1.2,0.7l-0.7,0.5c-0.5-1-1.3-1.5-2.5-1.5c-0.5,0-1.3,0.3-2.2,1  l-0.6,0.4l-0.3-1.1h-1.1v9.2h1.3v-6.9l0.8-0.5c0.8-0.6,1.5-0.9,2.1-0.9c1,0,1.5,0.8,1.5,2.5v5.9h1.3v-5.9c0-0.5,0-0.9-0.1-1.1  l0.6-0.4c0.9-0.6,1.7-0.9,2.3-0.9c1,0,1.5,0.8,1.5,2.5v5.9h1.3v-5.9C120.5,68,119.6,66.8,117.7,66.8z"></path>	<path d="M124.7,64.6c0.1,0,0.1,0,0.1-0.1v-1.3c0-0.1,0-0.2-0.1-0.2h-1.4c-0.1,0-0.1,0.1-0.1,0.2v1.3c0,0.1,0,0.1,0.1,0.1H124.7z"></path>	<path d="M124.8,74.2v-7.1H122v1.2h1.5c-0.1,0.2-0.1,0.4-0.1,0.6v5.4c0,1.5,0.7,2.2,2,2.2h0.7v-1.2h-0.7  C125,75.2,124.8,74.9,124.8,74.2z"></path>	<path d="M131.4,75.4c-0.5,0-0.9-0.1-1.1-0.3c-0.2-0.2-0.4-0.6-0.4-1.1v-5.8h2.9l0.4-1.2h-3.3v-3.5l-1.3,0.4v3.1H127v1.2h1.7  c-0.1,0.3-0.2,0.5-0.2,0.7V74c0,1.7,0.8,2.5,2.4,2.5c1.2,0,2.1-0.3,2.7-0.8l-0.8-0.9C132.4,75.3,131.9,75.4,131.4,75.4z"></path>	<path d="M139.1,66.8c-1.6,0-2.7,0.4-3.4,1.3c-0.6,0.8-0.9,2-0.9,3.6c0,1.7,0.3,2.9,1,3.7c0.7,0.8,1.8,1.2,3.3,1.2  c1.9,0,3.1-0.7,3.8-2l-1.2-0.5c-0.4,0.9-1.3,1.3-2.6,1.3c-1,0-1.8-0.3-2.2-0.8c-0.4-0.5-0.6-1.4-0.7-2.5h6.8v-0.4  c0-1.6-0.2-2.7-0.7-3.4C141.7,67.3,140.6,66.8,139.1,66.8z M136.2,70.9c0.1-1.1,0.3-1.9,0.8-2.4c0.4-0.4,1.1-0.7,2.1-0.7  c1,0,1.6,0.3,2,0.8c0.3,0.5,0.5,1.2,0.5,2.2H136.2z"></path>	<path d="M151.3,67c0,0.3,0,0.6,0.1,0.8c-0.9-0.6-1.9-1-2.8-1c-2.7,0-4.1,1.6-4.1,4.9c0,1.7,0.4,3,1.3,3.8c0.7,0.7,1.7,1,2.9,1  c0.9,0,1.7-0.3,2.6-1l0.4,0.8h0.8V62.9h-1.3V67z M151.3,74.4c-0.9,0.7-1.8,1-2.4,1c-1.9,0-2.9-1.3-2.9-3.8c0-1.3,0.2-2.3,0.6-2.9  c0.4-0.6,1.1-0.9,2.1-0.9c0.4,0,0.9,0.1,1.4,0.3c0.1,0.1,0.6,0.2,1.3,0.6V74.4z"></path></g></svg>